<?xml version="1.0" encoding="UTF-8"?>
<svg id="Camada_1" data-name="Camada 1" xmlns="http://www.w3.org/2000/svg" xmlns:xlink="http://www.w3.org/1999/xlink" viewBox="0 0 260.82 70.66">
  <defs>
    <style>
      .cls-1 {
        fill: none;
      }

      .cls-2 {
        clip-path: url(#clippath);
      }

      .cls-3 {
        fill: #5f6368;
      }

      .cls-4 {
        fill: #843dff;
      }
    </style>
    <clipPath id="clippath">
      <rect class="cls-1" width="260.82" height="70.66"/>
    </clipPath>
  </defs>
  <g class="cls-2">
    <g id="Grupo_352" data-name="Grupo 352">
      <path id="Caminho_175" data-name="Caminho 175" class="cls-3" d="m133.86,32.12v20.61h-4.74v-19.26c-.06-3.39-1.24-4.85-4.29-4.85-2.82,0-4.86,1.24-9.03,4.24v19.88h-4.63v-19.26c0-3.56-1.41-4.85-4.29-4.85s-4.79,1.19-9.03,4.24v19.88h-4.79v-27.5h3.95l.28,4.35c3.83-3.33,7.4-5.02,11.24-5.02s6.16,1.64,6.95,4.91c3.78-3.28,7.4-4.91,11.07-4.91,4.74,0,7.35,2.6,7.35,7.57"/>
      <path id="Caminho_176" data-name="Caminho 176" class="cls-3" d="m167.28,48.66l.51,3.22c-3.45,1.07-7.06,1.58-10.67,1.52-9.49,0-13.16-3.95-13.16-14.51s3.78-14.34,12.65-14.34c8.31,0,11.81,3.05,11.81,8.98.06,4.91-1.98,7.79-6.55,7.79h-12.76c.45,6.55,2.99,8.02,8.64,8.02,3.19-.03,6.38-.25,9.54-.68m-18.29-11.07h11.63c2.49,0,3-2.03,3-4.07-.06-3.5-1.86-4.91-6.78-4.91-5.7,0-7.68,2.03-7.85,8.98"/>
      <path id="Caminho_177" data-name="Caminho 177" class="cls-3" d="m185.34,45.16c0,2.65,1.02,3.67,3.73,3.67h4.18l.57,3.67c-2.04.47-4.12.72-6.21.74-4.63,0-7.06-2.65-7.06-7.46v-16.78h-4.97v-3.51l4.97-.28v-8.12h4.79v8.13h8.75v3.78h-8.75v16.15Z"/>
      <path id="Caminho_178" data-name="Caminho 178" class="cls-3" d="m226.94,32.12v20.61h-4.85v-19.25c0-3.67-1.07-4.85-3.9-4.85-3.27,0-6.21,1.52-10.62,4.29v19.81h-4.79V13.2h4.79l.06,10.9c.02,1.79-.1,3.59-.34,5.37,4.12-2.99,8.13-4.91,12.19-4.91,4.86,0,7.46,2.6,7.46,7.57"/>
      <path id="Caminho_179" data-name="Caminho 179" class="cls-3" d="m260.81,33.36v19.37h-3.78l-.57-4.57c-2.97,3.11-7.05,4.93-11.34,5.07-4.91,0-8.24-2.72-8.24-7.68v-2.99c0-4.29,2.82-6.77,7.62-6.77h11.46v-2.43c0-3.39-1.24-4.74-5.59-4.74-2.88,0-7.62.34-11.8.73l-.45-3.56c4.39-.74,8.82-1.15,13.27-1.24,6.1,0,9.43,2.14,9.43,8.81m-4.86,11.63v-5.59l-10.62.06c-2.65.11-3.56,1.47-3.56,3.78v1.75c0,2.88,1.3,4.12,4.29,4.12,3.67-.18,7.17-1.64,9.88-4.12"/>
      <path id="Caminho_180" data-name="Caminho 180" class="cls-4" d="m70.67,2.29h0c0-.1,0-.2-.02-.29-.16-1.25-1.3-2.13-2.55-1.97-.31.04-.61.14-.88.3-.15.09-.29.2-.42.32l-31.47,23.79L3.86.63c-.12-.11-.26-.21-.4-.3C2.38-.32.98.03.33,1.11.17,1.38.07,1.67.02,1.98c-.01.1-.02.2-.02.3,0,.1,0,.2.02.3v65.49c-.03.2-.03.41,0,.61.16,1.25,1.31,2.13,2.56,1.97.45-.06.87-.25,1.21-.55.15-.13.27-.27.39-.43l19.43-21.77,9.71,18.55.05.1c.61,1.09,1.99,1.48,3.08.86.35-.2.65-.49.85-.84l.08-.16,9.78-18.68,19.34,21.93c.11.15.23.29.37.42.94.84,2.38.77,3.22-.17.31-.35.51-.78.57-1.24.01-.1.02-.2.02-.29,0-.1,0-.2-.02-.29V2.58c.01-.1.02-.2.02-.29m-28.44,39.4h-13.78l6.88-9.86,6.9,9.86ZM4.55,62.44V11.49l16.82,32.13L4.55,62.44ZM8.97,10.17l23.54,17.79-8.14,11.64L8.97,10.17Zm26.36,50.37l-7.5-14.33h15l-7.5,14.33Zm10.96-20.94l-8.15-11.63,23.55-17.8-15.4,29.43Zm19.82,22.78l-16.72-18.95,16.72-31.94v50.9Z"/>
    </g>
  </g>
</svg>